<svg xmlns="http://www.w3.org/2000/svg" xmlns:xlink="http://www.w3.org/1999/xlink" width="150" zoomAndPan="magnify" viewBox="0 0 112.5 112.499997" height="150" preserveAspectRatio="xMidYMid meet" version="1.0"><defs><clipPath id="87f23d3bd8"><path d="M 51.585938 26.789062 L 92.652344 26.789062 L 92.652344 112.003906 L 51.585938 112.003906 Z M 51.585938 26.789062 " clip-rule="nonzero"/></clipPath></defs><g clip-path="url(#87f23d3bd8)"><path fill="#ffffff" d="M 83.179688 41.15625 L 92.652344 41.15625 L 92.652344 26.921875 L 80.554688 26.921875 L 80.554688 26.976562 C 64.648438 27.554688 61.371094 36.433594 61.097656 45.820312 L 61.058594 45.820312 L 61.058594 55.699219 L 51.585938 55.699219 L 51.585938 69.949219 L 61.058594 69.949219 L 61.058594 113.269531 L 78.058594 113.269531 L 78.058594 69.949219 L 90.246094 69.949219 L 92.652344 55.699219 L 78.058594 55.699219 L 78.058594 46.855469 C 78.058594 43.714844 80.171875 41.15625 83.179688 41.15625 Z M 83.179688 41.15625 " fill-opacity="1" fill-rule="nonzero"/></g></svg>